<svg width="34" height="30" viewBox="0 0 34 30" fill="none" xmlns="http://www.w3.org/2000/svg">
<path d="M26.6378 18.3369V24.391C26.6378 25.8919 26.105 27.1752 25.0392 28.241C23.9734 29.3067 22.6901 29.8396 21.1892 29.8396H5.44865C3.94775 29.8396 2.66441 29.3067 1.59865 28.241C0.532883 27.1752 0 25.8919 0 24.391V8.65041C0 7.14951 0.532883 5.86618 1.59865 4.80041C2.66441 3.73465 3.94775 3.20176 5.44865 3.20176H18.7676C18.9441 3.20176 19.0892 3.25852 19.2027 3.37203C19.3162 3.48555 19.373 3.63059 19.373 3.80717V5.01798C19.373 5.19456 19.3162 5.3396 19.2027 5.45311C19.0892 5.56663 18.9441 5.62338 18.7676 5.62338H5.44865C4.61622 5.62338 3.9036 5.91978 3.31081 6.51257C2.71802 7.10537 2.42162 7.81798 2.42162 8.65041V24.391C2.42162 25.2234 2.71802 25.936 3.31081 26.5288C3.9036 27.1216 4.61622 27.418 5.44865 27.418H21.1892C22.0216 27.418 22.7342 27.1216 23.327 26.5288C23.9198 25.936 24.2162 25.2234 24.2162 24.391V18.3369C24.2162 18.1603 24.273 18.0153 24.3865 17.9018C24.5 17.7882 24.645 17.7315 24.8216 17.7315H26.0324C26.209 17.7315 26.3541 17.7882 26.4676 17.9018C26.5811 18.0153 26.6378 18.1603 26.6378 18.3369ZM33.9027 1.99095V11.6774C33.9027 12.0054 33.7829 12.2892 33.5432 12.5288C33.3036 12.7684 33.0198 12.8882 32.6919 12.8882C32.364 12.8882 32.0802 12.7684 31.8405 12.5288L28.5108 9.19906L16.1757 21.5342C16.0496 21.6603 15.9045 21.7234 15.7405 21.7234C15.5766 21.7234 15.4315 21.6603 15.3054 21.5342L13.1486 19.3774C13.0225 19.2513 12.9595 19.1063 12.9595 18.9423C12.9595 18.7783 13.0225 18.6333 13.1486 18.5072L25.4838 6.17203L22.1541 2.8423C21.9144 2.60266 21.7946 2.31888 21.7946 1.99095C21.7946 1.66302 21.9144 1.37924 22.1541 1.1396C22.3937 0.899961 22.6775 0.78014 23.0054 0.78014H32.6919C33.0198 0.78014 33.3036 0.899961 33.5432 1.1396C33.7829 1.37924 33.9027 1.66302 33.9027 1.99095Z" fill="#61ECFF"/>
</svg>
